<svg id="Layer_1" data-name="Layer 1" xmlns="http://www.w3.org/2000/svg" viewBox="0 0 512 512"><defs><style>.cls-1{fill:#141f38;}</style></defs><title>thermometer-outline</title><path class="cls-1" d="M383.7,375.2A127.68,127.68,0,0,0,382,361.32q-.5-2.78-1.12-5.52a126.57,126.57,0,0,0-3.55-12.66q-.4-1.19-.83-2.37-1.1-3.06-2.35-6.05l-.48-1.13q-1.54-3.57-3.28-7l-.05-.11a127.92,127.92,0,0,0-12.46-19.83q-.71-.93-1.43-1.84a130.5,130.5,0,0,0-22.7-22.34q-3.27-2.5-6.71-4.8t-7-4.37V64a64,64,0,0,0-128,0V273.26q-3.58,2.08-7,4.37-1.72,1.15-3.39,2.35-3.35,2.4-6.54,5-1.59,1.3-3.15,2.66a127.5,127.5,0,0,0-43.6,87.55q-.3,4.36-.3,8.8,0,3.31.17,6.59a128.05,128.05,0,0,0,75.16,110.11q1.42.64,2.85,1.25,5.74,2.43,11.76,4.3,3,.93,6.07,1.72t6.19,1.43A128.58,128.58,0,0,0,256,512q3.31,0,6.59-.17t6.5-.49q4.84-.49,9.57-1.34A128.05,128.05,0,0,0,383.83,390.59q.17-3.27.17-6.59Q384,379.56,383.7,375.2ZM256,25.6A38.44,38.44,0,0,1,294.4,64v64H217.6V102.4h25.6a12.8,12.8,0,1,0,0-25.6H217.6V64A38.44,38.44,0,0,1,256,25.6Zm0,460.8a101.84,101.84,0,0,1-38.85-7.66q-1.13-.47-2.25-1a102.47,102.47,0,0,1-19.82-11.52l-.77-.58q-3.59-2.72-6.93-5.73-1-.94-2-1.9a103.2,103.2,0,0,1-14.23-16.84q-1.38-2-2.67-4.16-1.93-3.17-3.63-6.48-.57-1.1-1.11-2.22-1.08-2.24-2.05-4.53-1.46-3.44-2.67-7t-2.16-7.25q-.63-2.45-1.15-4.95-.77-3.75-1.26-7.59-.33-2.56-.53-5.16-.3-3.9-.3-7.87a102.77,102.77,0,0,1,51.23-88.58l4.84-2.8L217.6,288h0V273.26h0V256h25.6a12.8,12.8,0,1,0,0-25.6H217.6V204.8h25.6a12.8,12.8,0,1,0,0-25.6H217.6V153.6h76.8V273.26h0V288h0l6.93,4,5.84,3.38A102.77,102.77,0,0,1,358.4,384q0,4-.3,7.87-.2,2.6-.53,5.16-.49,3.84-1.26,7.59-.51,2.5-1.15,4.95-.95,3.68-2.16,7.25-.4,1.19-.83,2.36A102.58,102.58,0,0,1,256,486.4Z"/></svg>